<svg width="44" height="28" viewBox="0 0 44 28" fill="none" xmlns="http://www.w3.org/2000/svg" xmlns:xlink="http://www.w3.org/1999/xlink">
<g opacity="0.3">
<path d="M38.993,1.382L28.052,1.382L28.052,4.425L39.036,4.425L38.993,1.382ZM36.684,22.313C35.854,22.863 34.874,23.142 33.878,23.112C33.22,23.181 32.554,23.113 31.923,22.912C31.291,22.712 30.708,22.383 30.21,21.947C29.289,20.902 28.809,19.54 28.872,18.149L43.157,18.149C43.26,16.7 43.136,15.244 42.79,13.833C42.456,12.491 41.87,11.224 41.064,10.1C40.253,9.009 39.205,8.117 38,7.489C36.659,6.828 35.179,6.495 33.684,6.518C32.278,6.508 30.884,6.779 29.584,7.316C28.394,7.818 27.316,8.552 26.412,9.474C25.511,10.415 24.813,11.532 24.362,12.754C23.878,14.074 23.637,15.47 23.65,16.876C23.628,18.301 23.862,19.719 24.341,21.062C24.747,22.278 25.393,23.4 26.24,24.363C27.115,25.309 28.192,26.046 29.39,26.521C30.726,27.03 32.147,27.279 33.576,27.255C35.582,27.318 37.562,26.792 39.273,25.744C41.001,24.516 42.246,22.722 42.79,20.674L38.022,20.674C37.766,21.351 37.296,21.927 36.684,22.313ZM29.282,13.423C29.45,12.885 29.729,12.388 30.101,11.965C30.472,11.541 30.928,11.2 31.44,10.963C32.118,10.658 32.855,10.511 33.598,10.532C34.134,10.486 34.674,10.557 35.181,10.739C35.688,10.922 36.149,11.211 36.533,11.589C37.266,12.486 37.736,13.569 37.892,14.718L28.937,14.718C28.972,14.279 29.051,13.846 29.174,13.423L29.282,13.423ZM17.867,12.387C18.965,11.93 19.92,11.184 20.629,10.229C21.281,9.215 21.605,8.025 21.557,6.82C21.599,5.721 21.385,4.628 20.931,3.626C20.55,2.759 19.938,2.012 19.162,1.469C18.339,0.903 17.404,0.521 16.421,0.346C15.258,0.102 14.071,-0.013 12.882,0.001L0,0.001L0,27.147L13.163,27.147C14.364,27.148 15.561,26.996 16.723,26.694C17.826,26.409 18.87,25.934 19.809,25.291C20.719,24.661 21.46,23.816 21.967,22.831C22.528,21.73 22.802,20.506 22.765,19.271C22.806,17.74 22.377,16.234 21.535,14.955C20.63,13.669 19.288,12.756 17.759,12.387L17.867,12.387ZM5.977,4.641L11.566,4.641C12.08,4.64 12.592,4.683 13.098,4.77C13.564,4.839 14.012,5.001 14.414,5.245C14.804,5.465 15.119,5.795 15.321,6.194C15.571,6.673 15.69,7.209 15.666,7.748C15.706,8.212 15.635,8.68 15.459,9.111C15.283,9.543 15.006,9.926 14.652,10.229C13.88,10.76 12.956,11.025 12.019,10.985L5.977,10.985L5.977,4.641ZM16.421,20.695C16.2,21.135 15.864,21.507 15.45,21.774C15.019,22.042 14.545,22.232 14.048,22.335C13.495,22.459 12.93,22.517 12.365,22.508L5.891,22.508L5.891,15.063L12.365,15.063C13.475,15.014 14.573,15.325 15.493,15.948C15.909,16.321 16.232,16.787 16.434,17.308C16.637,17.829 16.714,18.391 16.659,18.947C16.717,19.54 16.636,20.139 16.421,20.695L16.421,20.695Z" fill="#FFFFFF"/>
</g>
</svg>
