<svg width="176" height="28" viewBox="0 0 176 28" fill="none" xmlns="http://www.w3.org/2000/svg" xmlns:xlink="http://www.w3.org/1999/xlink">
<g opacity="0.3">
<path d="M12.26,7.661L15.046,7.661C16.787,7.661 18.598,8.009 18.598,10.029C18.598,11.77 17.484,13.024 14.21,13.024L11.145,13.024L12.26,7.661ZM0.001,27.372L8.081,27.372L9.752,19.362L15.255,19.362C22.22,19.362 26.747,14.765 26.747,9.402C26.747,3.551 23.613,0.835 18.737,0.835L5.573,0.835L0.001,27.372Z" transform="rotate(-0.008 13.374 14.104)" fill="#FFFFFF"/>
<path d="M36.708,9.958L37.683,17.898L32.599,17.898L36.708,9.958ZM19.226,27.371L27.584,27.371L29.604,23.61L38.24,23.61L38.658,27.371L46.668,27.371L42.629,0.834L34.549,0.834L19.226,27.371Z" transform="rotate(-0.008 32.947 14.102)" fill="#FFFFFF"/>
<path d="M50.081,17.618L44.37,0.832L52.588,0.832L55.096,10.723L61.574,0.832L71.186,0.832L58.23,17.548L56.21,27.369L48.061,27.369L50.081,17.618Z" transform="rotate(-0.008 57.778 14.101)" fill="#FFFFFF"/>
<path d="M90.688,17.268C90.2,19.985 88.111,27.995 77.036,27.995C69.305,27.995 65.613,22.98 65.613,15.875C65.613,7.308 70.976,0.134 80.031,0.134C85.952,0.134 91.245,2.711 91.384,10.651L83.653,10.651C83.723,8.144 82.539,6.751 80.031,6.751C75.504,6.751 73.832,11.975 73.832,15.736C73.832,17.965 74.389,21.308 78.151,21.308C80.728,21.308 82.19,19.567 82.678,17.199L90.688,17.268Z" transform="rotate(-0.008 78.499 14.064)" fill="#FFFFFF"/>
<path d="M95.424,0.829L103.643,0.829L101.693,10.023L109.146,10.023L111.096,0.829L119.315,0.829L113.743,27.366L105.593,27.366L107.753,16.849L100.3,16.849L98.071,27.366L89.922,27.366L95.424,0.829Z" transform="rotate(-0.008 104.618 14.098)" fill="#FFFFFF"/>
<path d="M121.473,0.827L143.413,0.827L142.02,7.653L128.229,7.653L127.533,10.927L140.349,10.927L139.025,17.265L126.209,17.265L125.513,20.539L139.582,20.539L138.189,27.365L115.901,27.365L121.473,0.827Z" transform="rotate(-0.008 129.657 14.096)" fill="#FFFFFF"/>
<path d="M149.057,13.293L142.927,0.826L151.843,0.826L154.42,7.721L159.713,0.826L169.395,0.826L158.32,13.293L164.798,27.363L155.604,27.363L152.679,19.98L146.48,27.363L136.45,27.363L149.057,13.293Z" transform="rotate(-0.008 152.922 14.094)" fill="#FFFFFF"/>
<path d="M170.437,2.008C170.437,1.033 171.134,0.267 172.109,0.267C173.014,0.267 173.781,1.033 173.781,2.008C173.781,2.984 173.084,3.75 172.109,3.75C171.203,3.75 170.437,2.984 170.437,2.008ZM170.089,2.008C170.089,3.192 170.994,4.028 172.109,4.028C173.223,4.028 174.129,3.192 174.129,2.008C174.129,0.894 173.223,-0.011 172.109,-0.011C170.994,-0.011 170.089,0.894 170.089,2.008ZM171.343,3.192L171.691,3.192L171.691,2.217L172.039,2.217L172.666,3.262L173.084,3.262L172.388,2.217C172.736,2.217 173.014,2.008 173.014,1.591C173.014,1.103 172.736,0.894 172.179,0.894L171.343,0.894L171.343,3.192ZM171.691,1.173L172.179,1.173C172.457,1.173 172.666,1.242 172.666,1.521C172.666,1.869 172.388,1.939 172.039,1.939L171.691,1.939L171.691,1.173L171.691,1.173Z" transform="rotate(-0.008 172.109 2.008)" fill="#FFFFFF"/>
</g>
</svg>
