<svg width="164" height="56" viewBox="0 0 164 56" fill="none" xmlns="http://www.w3.org/2000/svg" xmlns:xlink="http://www.w3.org/1999/xlink">
<path d="M56.018,29.233C56.023,26.96 55.326,24.74 54.021,22.879C52.716,21.018 50.867,19.606 48.728,18.837C48.923,17.845 49.021,16.836 49.021,15.825C49.023,12.479 47.964,9.218 45.996,6.512C44.028,3.805 41.252,1.793 38.068,0.763C34.884,-0.266 31.455,-0.259 28.275,0.783C25.095,1.825 22.328,3.848 20.37,6.562C18.926,5.443 17.157,4.825 15.33,4.802C13.503,4.779 11.718,5.352 10.246,6.434C8.774,7.516 7.695,9.048 7.172,10.798C6.648,12.549 6.71,14.422 7.347,16.134C5.203,16.916 3.35,18.335 2.037,20.201C0.724,22.067 0.014,24.291 0.002,26.573C-0.004,28.853 0.697,31.08 2.009,32.946C3.321,34.812 5.179,36.225 7.327,36.991C7.137,37.983 7.04,38.99 7.038,40C7.035,43.342 8.093,46.599 10.06,49.301C12.028,52.003 14.802,54.011 17.984,55.035C21.166,56.058 24.591,56.045 27.765,54.996C30.938,53.947 33.697,51.918 35.643,49.2C37.083,50.322 38.85,50.944 40.675,50.971C42.5,50.999 44.284,50.43 45.757,49.352C47.23,48.273 48.311,46.744 48.835,44.996C49.361,43.247 49.301,41.376 48.666,39.664C50.811,38.884 52.666,37.465 53.98,35.599C55.294,33.733 56.004,31.508 56.015,29.226Z" transform="rotate(-0.008 28.01 27.894)" fill="#FFFFFF"/>
<path d="M22.023,24.029L34.281,29.626L46.654,18.79C46.832,17.896 46.92,16.987 46.917,16.075C46.917,13.124 45.972,10.25 44.22,7.874C42.469,5.499 40.003,3.746 37.183,2.873C34.364,2 31.34,2.052 28.552,3.021C25.764,3.991 23.36,5.827 21.691,8.261L19.63,18.921L22.023,24.029Z" transform="rotate(-0.008 33.274 15.94)" fill="#000000"/>
<path d="M9.337,37.011C9.156,37.919 9.066,38.842 9.067,39.768C9.067,42.732 10.017,45.618 11.778,48.002C13.538,50.386 16.017,52.143 18.849,53.015C21.682,53.886 24.719,53.828 27.516,52.846C30.312,51.865 32.721,50.013 34.387,47.563L36.429,36.926L33.704,31.717L21.4,26.11L9.337,37.011Z" transform="rotate(-0.008 22.748 39.869)" fill="#000000"/>
<path d="M9.26,15.8L17.66,17.782L19.5,8.23C18.357,7.363 16.965,6.89 15.531,6.882C14.097,6.873 12.699,7.329 11.546,8.181C10.393,9.034 9.547,10.237 9.135,11.61C8.723,12.983 8.767,14.453 9.26,15.8Z" transform="rotate(-0.008 14.178 12.332)" fill="#000000"/>
<path d="M8.532,17.799C6.689,18.421 5.086,19.602 3.945,21.177C2.804,22.753 2.183,24.644 2.167,26.59C2.166,28.469 2.737,30.305 3.804,31.853C4.871,33.4 6.384,34.586 8.142,35.253L19.928,24.6L17.762,19.977L8.532,17.799Z" transform="rotate(-0.008 11.047 26.526)" fill="#000000"/>
<path d="M36.543,47.561C37.684,48.423 39.073,48.893 40.502,48.901C41.932,48.908 43.326,48.453 44.475,47.604C45.625,46.754 46.469,45.555 46.882,44.186C47.294,42.817 47.252,41.351 46.763,40.008L38.369,38.054L36.543,47.561Z" transform="rotate(-0.008 41.853 43.478)" fill="#000000"/>
<path d="M38.248,35.843L47.488,38.002C49.332,37.382 50.937,36.202 52.078,34.625C53.219,33.05 53.84,31.157 53.853,29.211C53.852,27.336 53.28,25.504 52.213,23.961C51.147,22.418 49.636,21.235 47.882,20.57L35.796,31.152L38.248,35.843Z" transform="rotate(-0.008 44.825 29.286)" fill="#000000"/>
<path d="M78.324,39.195L79.444,39.081L79.522,41.36C77.03,41.737 74.515,41.943 71.995,41.979C69.216,41.979 67.248,41.175 66.089,39.566C64.929,37.958 64.351,35.455 64.353,32.058C64.353,25.293 67.043,21.909 72.421,21.907C75.026,21.907 76.969,22.634 78.249,24.088C79.53,25.542 80.172,27.822 80.176,30.925L80.023,33.126L67.287,33.126C67.287,35.262 67.673,36.844 68.446,37.873C69.219,38.902 70.562,39.417 72.476,39.417C74.395,39.423 76.344,39.349 78.324,39.195ZM77.282,30.821C77.282,28.453 76.903,26.781 76.146,25.804C75.388,24.827 74.153,24.338 72.441,24.336C70.728,24.336 69.441,24.85 68.579,25.879C67.718,26.908 67.274,28.555 67.248,30.821L77.282,30.821Z" transform="rotate(-0.008 72.265 31.943)" fill="#FFFFFF"/>
<path d="M84.214,41.825L84.214,16.43L87.108,16.43L87.108,41.825L84.214,41.825Z" transform="rotate(-0.008 85.661 29.127)" fill="#FFFFFF"/>
<path d="M105.337,28.117L105.337,37.852C105.337,38.829 107.74,38.777 107.74,38.777L107.594,41.336C105.559,41.336 103.875,41.505 102.866,40.525C100.68,41.496 98.313,41.99 95.921,41.974C94.148,41.974 92.797,41.471 91.868,40.466C90.939,39.461 90.475,38.017 90.478,36.133C90.478,34.253 90.954,32.87 91.907,31.982C92.86,31.094 94.352,30.551 96.384,30.354L102.443,29.778L102.443,28.117C102.443,26.815 102.161,25.875 101.596,25.298C101.287,25.007 100.922,24.783 100.524,24.637C100.125,24.492 99.702,24.428 99.278,24.451L91.673,24.451L91.673,21.902L99.086,21.902C101.274,21.902 102.863,22.404 103.853,23.409C104.842,24.414 105.337,25.983 105.337,28.117ZM93.444,35.99C93.444,38.358 94.421,39.542 96.374,39.542C98.136,39.54 99.886,39.239 101.548,38.653L102.433,38.344L102.433,31.975L96.732,32.516C95.573,32.62 94.736,32.954 94.222,33.518C93.708,34.083 93.448,34.906 93.444,35.99Z" transform="rotate(-0.008 99.109 31.938)" fill="#FFFFFF"/>
<path d="M116.639,24.489C113.832,24.489 112.429,25.466 112.429,27.419C112.429,28.322 112.754,28.959 113.406,29.33C114.057,29.701 115.523,30.088 117.804,30.489C120.096,30.891 121.718,31.451 122.668,32.169C123.619,32.888 124.096,34.238 124.098,36.22C124.098,38.203 123.461,39.658 122.186,40.582C120.912,41.507 119.053,41.97 116.609,41.973C115.014,41.973 109.687,41.38 109.687,41.38L109.844,38.873C112.904,39.166 115.115,39.384 116.609,39.384C118.104,39.384 119.24,39.147 120.025,38.671C120.809,38.196 121.2,37.398 121.2,36.278C121.2,35.158 120.874,34.4 120.197,33.999C119.52,33.599 118.061,33.221 115.799,32.86C113.536,32.498 111.924,31.971 110.973,31.277C110.023,30.584 109.544,29.294 109.544,27.416C109.544,25.537 110.195,24.16 111.533,23.248C112.872,22.337 114.513,21.897 116.492,21.897C118.061,21.897 123.508,22.298 123.508,22.298L123.508,24.821C120.633,24.694 118.283,24.489 116.639,24.489Z" transform="rotate(-0.008 116.821 31.935)" fill="#FFFFFF"/>
<path d="M138.048,24.794L131.911,24.794L131.911,34.021C131.911,36.233 132.072,37.686 132.393,38.381C132.719,39.077 133.481,39.422 134.688,39.422L138.123,39.191L138.319,41.584C137.018,41.825 135.701,41.967 134.379,42.011C132.374,42.011 130.984,41.521 130.212,40.542C129.439,39.563 129.054,37.698 129.056,34.946L129.056,24.794L126.328,24.794L126.328,22.287L129.069,22.287L129.069,16.381L131.924,16.381L131.924,22.287L138.048,22.287L138.048,24.794Z" transform="rotate(-0.008 132.323 29.196)" fill="#FFFFFF"/>
<path d="M142.073,19.822L142.073,16.462L144.967,16.462L144.967,19.822L142.073,19.822ZM142.073,41.821L142.073,22.286L144.967,22.286L144.967,41.821L142.073,41.821Z" transform="rotate(-0.008 143.52 29.141)" fill="#FFFFFF"/>
<path d="M157.505,21.898C158.951,21.96 160.391,22.115 161.816,22.363L162.741,22.477L162.627,24.831C161.114,24.64 159.593,24.525 158.069,24.486C155.881,24.486 154.395,25.007 153.611,26.049C152.828,27.091 152.435,29.021 152.433,31.838C152.433,34.66 152.8,36.622 153.533,37.724C154.267,38.827 155.797,39.381 158.124,39.385L162.682,39.04L162.799,41.433C161.025,41.733 159.233,41.914 157.434,41.973C154.425,41.973 152.348,41.201 151.202,39.655C150.056,38.11 149.483,35.505 149.483,31.841C149.483,28.175 150.101,25.602 151.336,24.122C152.571,22.641 154.627,21.9 157.505,21.898Z" transform="rotate(-0.008 156.141 31.936)" fill="#FFFFFF"/>
</svg>
