<svg width="36" height="34" viewBox="0 0 36 34" fill="none" xmlns="http://www.w3.org/2000/svg" xmlns:xlink="http://www.w3.org/1999/xlink">
<g opacity="0.3">
<path d="M0,3.95C0,2.805 0.405,1.861 1.216,1.117C2.027,0.373 3.081,0 4.378,0C5.653,0 6.683,0.367 7.471,1.099C8.282,1.855 8.687,2.84 8.687,4.053C8.687,5.152 8.293,6.068 7.506,6.8C6.695,7.556 5.629,7.934 4.309,7.934L4.274,7.934C3,7.934 1.969,7.556 1.181,6.8C0.394,6.045 0,5.095 0,3.95ZM0.452,34L0.452,11.059L8.166,11.059L8.166,34L0.452,34ZM12.44,34L20.154,34L20.154,21.19C20.154,20.389 20.247,19.771 20.432,19.336C20.757,18.557 21.249,17.899 21.909,17.361C22.569,16.823 23.398,16.554 24.394,16.554C26.988,16.554 28.286,18.283 28.286,21.74L28.286,34L36,34L36,20.847C36,17.458 35.189,14.888 33.568,13.137C31.946,11.385 29.803,10.51 27.139,10.51C24.151,10.51 21.822,11.78 20.154,14.322L20.154,14.39L20.12,14.39L20.154,14.322L20.154,11.059L12.44,11.059C12.486,11.792 12.51,14.07 12.51,17.893C12.51,21.717 12.486,27.086 12.44,34Z" fill="#FFFFFF"/>
</g>
</svg>
