<svg width="36" height="30" viewBox="0 0 36 30" fill="none" xmlns="http://www.w3.org/2000/svg" xmlns:xlink="http://www.w3.org/1999/xlink">
<g opacity="0.3">
<path d="M35.083,3.422C33.765,3.994 32.37,4.372 30.944,4.544C32.449,3.645 33.577,2.23 34.119,0.562C32.704,1.404 31.155,1.998 29.54,2.317C28.461,1.146 27.023,0.366 25.453,0.101C23.882,-0.165 22.268,0.098 20.864,0.849C19.459,1.599 18.343,2.795 17.691,4.248C17.039,5.701 16.888,7.329 17.261,8.877C14.401,8.732 11.603,7.988 9.049,6.691C6.495,5.395 4.243,3.576 2.438,1.352C1.805,2.457 1.473,3.709 1.474,4.983C1.471,6.166 1.762,7.331 2.319,8.375C2.876,9.418 3.682,10.308 4.666,10.965C3.522,10.933 2.403,10.627 1.403,10.07L1.403,10.158C1.412,11.815 1.993,13.419 3.048,14.697C4.102,15.976 5.566,16.851 7.192,17.174C6.566,17.365 5.917,17.465 5.262,17.473C4.81,17.467 4.358,17.426 3.912,17.35C4.375,18.776 5.271,20.022 6.475,20.915C7.679,21.807 9.131,22.303 10.63,22.332C8.099,24.323 4.975,25.41 1.754,25.419C1.168,25.421 0.582,25.386 0,25.314C3.288,27.437 7.12,28.564 11.034,28.559C13.735,28.587 16.414,28.077 18.915,27.057C21.417,26.038 23.69,24.531 25.602,22.624C27.515,20.716 29.028,18.447 30.053,15.948C31.079,13.449 31.596,10.771 31.575,8.07C31.575,7.772 31.575,7.456 31.575,7.141C32.952,6.114 34.139,4.856 35.083,3.422L35.083,3.422Z" fill="#FFFFFF"/>
</g>
</svg>
