<svg width="26" height="32" viewBox="0 0 26 32" fill="none" xmlns="http://www.w3.org/2000/svg" xmlns:xlink="http://www.w3.org/1999/xlink">
<path d="M24.162,15.827C24.162,7.283 20.023,0.54 12.113,0.54C4.169,0.54 -0.638,7.283 -0.638,15.761C-0.638,25.807 5.037,30.881 13.181,30.881C17.153,30.881 20.157,29.979 22.426,28.711L22.426,22.036C20.157,23.17 17.553,23.871 14.249,23.871C11.011,23.871 8.141,22.736 7.774,18.798L24.095,18.798C24.095,18.364 24.162,16.628 24.162,15.827ZM7.673,12.656C7.673,8.885 9.976,7.316 12.079,7.316C14.115,7.316 16.285,8.885 16.285,12.656L7.673,12.656Z" clip-rule="evenodd" fill-rule="evenodd" transform="rotate(-0.008 11.762 15.71)" fill="#FFFFFF"/>
</svg>
