<svg width="22" height="32" viewBox="0 0 22 32" fill="none" xmlns="http://www.w3.org/2000/svg" xmlns:xlink="http://www.w3.org/1999/xlink">
<path d="M8.447,9.592C8.447,8.29 9.515,7.79 11.284,7.79C13.82,7.79 17.025,8.557 19.561,9.926L19.561,2.082C16.791,0.981 14.054,0.547 11.284,0.547C4.508,0.547 0.002,4.085 0.002,9.993C0.002,19.205 12.686,17.736 12.686,21.708C12.686,23.244 11.35,23.744 9.481,23.744C6.711,23.744 3.173,22.609 0.369,21.074L0.369,29.018C3.473,30.353 6.611,30.92 9.481,30.92C16.424,30.92 21.197,27.483 21.197,21.508C21.164,11.561 8.447,13.33 8.447,9.592Z" clip-rule="evenodd" fill-rule="evenodd" transform="rotate(-0.008 10.599 15.734)" fill="#FFFFFF"/>
</svg>
