<svg width="24" height="26" viewBox="0 0 24 26" fill="none" xmlns="http://www.w3.org/2000/svg" xmlns:xlink="http://www.w3.org/1999/xlink">
<path d="M12.45,24.529C8.964,24.529 6.059,23.4 3.702,21.14C1.346,18.848 0.184,15.911 0.184,12.328C0.184,8.713 1.378,5.743 3.735,3.419C6.123,1.062 9.028,-0.1 12.482,-0.1C16.743,-0.1 20.52,1.74 22.715,4.613L18.873,8.648C17.033,6.679 15.032,5.678 12.87,5.678C11.03,5.678 9.513,6.292 8.254,7.551C7.027,8.809 6.414,10.391 6.414,12.296C6.414,14.135 7.027,15.685 8.254,16.944C9.513,18.17 11.03,18.784 12.837,18.784C15.194,18.784 17.26,17.751 18.97,15.717L22.973,19.558C21.876,21.011 20.391,22.205 18.551,23.141C16.711,24.077 14.677,24.529 12.45,24.529Z" clip-rule="evenodd" fill-rule="evenodd" transform="rotate(-0.008 11.579 12.215)" fill="#FFFFFF"/>
</svg>
