<svg width="22" height="26" viewBox="0 0 22 26" fill="none" xmlns="http://www.w3.org/2000/svg" xmlns:xlink="http://www.w3.org/1999/xlink">
<path d="M11.601,18.907C16.364,18.907 20.225,14.715 20.225,9.543C20.225,4.372 16.364,0.18 11.601,0.18C9.659,0.18 7.868,0.876 6.426,2.052L6.426,0.426L0.759,0.426L0.759,25.806L6.426,25.806L6.426,17.035C7.868,18.21 9.659,18.907 11.601,18.907ZM6.426,9.553L6.426,9.534C6.432,7.225 8.25,5.354 10.492,5.354C12.738,5.354 14.558,7.23 14.558,9.543C14.558,11.857 12.738,13.732 10.492,13.732C8.25,13.732 6.432,11.862 6.426,9.553Z" clip-rule="evenodd" fill-rule="evenodd" transform="rotate(-0.008 10.492 12.993)" fill="#FFFFFF"/>
</svg>
