<svg width="26" height="40" viewBox="0 0 26 40" fill="none" xmlns="http://www.w3.org/2000/svg" xmlns:xlink="http://www.w3.org/1999/xlink">
<path d="M14.478,0.542C11.207,0.542 9.104,2.077 7.936,3.145L7.502,1.076L0.159,1.076L0.159,39.995L8.503,38.226L8.537,28.78C9.738,29.647 11.507,30.882 14.445,30.882C20.419,30.882 25.86,26.076 25.86,15.495C25.827,5.816 20.319,0.542 14.478,0.542ZM12.475,23.539C10.506,23.539 9.338,22.838 8.537,21.971L8.503,9.587C9.371,8.619 10.573,7.952 12.475,7.952C15.513,7.952 17.616,11.356 17.616,15.729C17.616,20.201 15.546,23.539 12.475,23.539Z" clip-rule="evenodd" fill-rule="evenodd" transform="rotate(-0.008 13.01 20.268)" fill="#FFFFFF"/>
</svg>
