<svg width="20" height="20" viewBox="0 0 20 20" fill="none" xmlns="http://www.w3.org/2000/svg" xmlns:xlink="http://www.w3.org/1999/xlink">
<path d="M10.37,18.559C7.562,18.559 5.302,17.687 3.527,15.944C1.784,14.201 0.912,11.974 0.912,9.23C0.912,6.487 1.784,4.259 3.559,2.516C5.335,0.773 7.626,-0.098 10.467,-0.098C14.18,-0.098 17.439,1.709 18.956,5.099L14.405,7.487C13.501,5.97 12.243,5.195 10.596,5.195C9.402,5.195 8.433,5.583 7.659,6.357C6.916,7.132 6.529,8.101 6.529,9.23C6.529,11.587 8.24,13.33 10.532,13.33C12.178,13.33 13.695,12.426 14.341,11.038L18.892,13.749C17.342,16.719 14.147,18.559 10.37,18.559Z" clip-rule="evenodd" fill-rule="evenodd" transform="rotate(-0.008 9.934 9.23)" fill="#FFFFFF"/>
</svg>
