<svg width="48" height="44" viewBox="0 0 48 44" fill="none" xmlns="http://www.w3.org/2000/svg" xmlns:xlink="http://www.w3.org/1999/xlink">
<path d="M13.883,0.48L0.253,9.254L9.686,16.866L23.391,8.395L13.883,0.48Z" transform="rotate(-0.008 11.822 8.673)" fill="#FFFFFF"/>
<path d="M0.254,24.3L13.884,33.252L23.392,25.337L9.687,16.866L0.254,24.3Z" transform="rotate(-0.008 11.823 25.059)" fill="#FFFFFF"/>
<path d="M23.393,25.336L32.901,33.251L46.48,24.4L37.073,16.864L23.393,25.336Z" transform="rotate(-0.008 34.936 25.057)" fill="#FFFFFF"/>
<path d="M46.479,9.329L32.899,0.478L23.391,8.393L37.072,16.864L46.479,9.329Z" transform="rotate(-0.008 34.935 8.671)" fill="#FFFFFF"/>
<path d="M23.419,27.031L13.885,34.946L9.789,32.29L9.789,35.274L23.419,43.442L37.023,35.274L37.023,32.29L32.952,34.946L23.419,27.031Z" transform="rotate(-0.008 23.406 35.236)" fill="#FFFFFF"/>
</svg>
