<svg width="20" height="28" viewBox="0 0 20 28" fill="none" xmlns="http://www.w3.org/2000/svg" xmlns:xlink="http://www.w3.org/1999/xlink">
<path d="M6.222,26.247L0.988,26.247L0.988,0.403L6.222,0.403L6.222,1.971C7.057,0.96 8.928,-0.001 10.951,-0.001C16.438,-0.001 19.549,4.551 19.549,9.886C19.549,15.197 16.438,19.723 10.951,19.723C8.928,19.723 7.057,18.762 6.222,17.751L6.222,26.247L6.222,26.247ZM6.222,12.946C6.854,14.261 8.245,15.146 9.762,15.146C12.595,15.146 14.289,12.87 14.289,9.861C14.289,6.826 12.595,4.551 9.762,4.551C8.195,4.551 6.854,5.486 6.222,6.751L6.222,12.946Z" transform="rotate(-0.008 10.268 13.123)" fill="#FFFFFF"/>
</svg>
