<svg width="20" height="28" viewBox="0 0 20 28" fill="none" xmlns="http://www.w3.org/2000/svg" xmlns:xlink="http://www.w3.org/1999/xlink">
<path d="M5.084,27.266L-0.201,27.266L-0.201,-0.17L5.084,-0.17L5.084,9.97C5.918,8.958 7.79,7.997 9.813,7.997C15.3,7.997 18.385,12.473 18.385,17.885C18.385,23.296 15.3,27.722 9.813,27.722C7.79,27.722 5.918,26.761 5.084,25.749L5.084,27.266ZM5.084,20.945C5.665,22.259 7.056,23.145 8.624,23.145C11.456,23.145 13.151,20.869 13.151,17.86C13.151,14.825 11.456,12.549 8.624,12.549C7.107,12.549 5.665,13.485 5.084,14.749L5.084,20.945Z" transform="rotate(-0.008 9.092 13.776)" fill="#FFFFFF"/>
</svg>
